<mxfile host="app.diagrams.net" modified="2021-06-02T15:11:31.217Z" agent="5.0 (Windows NT 6.3; Win64; x64) AppleWebKit/537.36 (KHTML, like Gecko) Chrome/91.0.4472.77 Safari/537.36" etag="C3o05AIwVSM6QJ2yWUSk" version="14.7.3" type="github">
  <diagram id="_2UyjrKLCwH7E9tXVaBN" name="Page-1">
    <mxGraphModel dx="868" dy="450" grid="1" gridSize="10" guides="1" tooltips="1" connect="1" arrows="1" fold="1" page="1" pageScale="1" pageWidth="827" pageHeight="1169" math="0" shadow="0">
      <root>
        <mxCell id="0" />
        <mxCell id="1" parent="0" />
        <mxCell id="LCBWZU79WuUDxQnq2k4j-1" value="Inicio" style="ellipse;whiteSpace=wrap;html=1;" vertex="1" parent="1">
          <mxGeometry x="160" y="80" width="120" height="80" as="geometry" />
        </mxCell>
        <mxCell id="LCBWZU79WuUDxQnq2k4j-4" value="&quot;ingresa 2 números&quot;" style="shape=document;whiteSpace=wrap;html=1;boundedLbl=1;" vertex="1" parent="1">
          <mxGeometry x="160" y="190" width="120" height="80" as="geometry" />
        </mxCell>
        <mxCell id="LCBWZU79WuUDxQnq2k4j-5" value="" style="endArrow=classic;html=1;entryX=0.5;entryY=0;entryDx=0;entryDy=0;exitX=0.5;exitY=1;exitDx=0;exitDy=0;" edge="1" parent="1" source="LCBWZU79WuUDxQnq2k4j-1" target="LCBWZU79WuUDxQnq2k4j-4">
          <mxGeometry width="50" height="50" relative="1" as="geometry">
            <mxPoint x="380" y="160" as="sourcePoint" />
            <mxPoint x="430" y="110" as="targetPoint" />
          </mxGeometry>
        </mxCell>
        <mxCell id="LCBWZU79WuUDxQnq2k4j-6" value="" style="endArrow=classic;html=1;exitX=0.45;exitY=0.913;exitDx=0;exitDy=0;exitPerimeter=0;" edge="1" parent="1" source="LCBWZU79WuUDxQnq2k4j-4" target="LCBWZU79WuUDxQnq2k4j-7">
          <mxGeometry width="50" height="50" relative="1" as="geometry">
            <mxPoint x="390" y="330" as="sourcePoint" />
            <mxPoint x="374" y="310" as="targetPoint" />
          </mxGeometry>
        </mxCell>
        <mxCell id="LCBWZU79WuUDxQnq2k4j-7" value="n1, n2, sum" style="shape=parallelogram;perimeter=parallelogramPerimeter;whiteSpace=wrap;html=1;fixedSize=1;" vertex="1" parent="1">
          <mxGeometry x="154" y="310" width="120" height="60" as="geometry" />
        </mxCell>
        <mxCell id="LCBWZU79WuUDxQnq2k4j-8" value="" style="endArrow=classic;html=1;" edge="1" parent="1" source="LCBWZU79WuUDxQnq2k4j-7" target="LCBWZU79WuUDxQnq2k4j-9">
          <mxGeometry width="50" height="50" relative="1" as="geometry">
            <mxPoint x="373.5" y="369.99999999999994" as="sourcePoint" />
            <mxPoint x="373.5" y="416.96" as="targetPoint" />
          </mxGeometry>
        </mxCell>
        <mxCell id="LCBWZU79WuUDxQnq2k4j-9" value="sum = n1 + n2" style="shape=process;whiteSpace=wrap;html=1;backgroundOutline=1;" vertex="1" parent="1">
          <mxGeometry x="154" y="410.00000000000006" width="120" height="60" as="geometry" />
        </mxCell>
        <mxCell id="LCBWZU79WuUDxQnq2k4j-10" value="" style="endArrow=classic;html=1;exitX=0.5;exitY=1;exitDx=0;exitDy=0;entryX=0.5;entryY=0;entryDx=0;entryDy=0;" edge="1" parent="1" source="LCBWZU79WuUDxQnq2k4j-9" target="LCBWZU79WuUDxQnq2k4j-12">
          <mxGeometry width="50" height="50" relative="1" as="geometry">
            <mxPoint x="240" y="480" as="sourcePoint" />
            <mxPoint x="213.78571428571422" y="510" as="targetPoint" />
          </mxGeometry>
        </mxCell>
        <mxCell id="LCBWZU79WuUDxQnq2k4j-14" value="" style="edgeStyle=orthogonalEdgeStyle;rounded=0;orthogonalLoop=1;jettySize=auto;html=1;exitX=0.5;exitY=0.85;exitDx=0;exitDy=0;exitPerimeter=0;entryX=0.5;entryY=0;entryDx=0;entryDy=0;" edge="1" parent="1" source="LCBWZU79WuUDxQnq2k4j-12" target="LCBWZU79WuUDxQnq2k4j-13">
          <mxGeometry relative="1" as="geometry">
            <mxPoint x="374" y="640" as="targetPoint" />
          </mxGeometry>
        </mxCell>
        <mxCell id="LCBWZU79WuUDxQnq2k4j-12" value="&quot;la suma de los números que ingresaste es igual a &quot; sum" style="shape=document;whiteSpace=wrap;html=1;boundedLbl=1;" vertex="1" parent="1">
          <mxGeometry x="151" y="510" width="126" height="80" as="geometry" />
        </mxCell>
        <mxCell id="LCBWZU79WuUDxQnq2k4j-13" value="fin" style="ellipse;whiteSpace=wrap;html=1;" vertex="1" parent="1">
          <mxGeometry x="154" y="640" width="120" height="60" as="geometry" />
        </mxCell>
        <mxCell id="LCBWZU79WuUDxQnq2k4j-15" value="Inicio" style="ellipse;whiteSpace=wrap;html=1;" vertex="1" parent="1">
          <mxGeometry x="440" y="80" width="120" height="80" as="geometry" />
        </mxCell>
        <mxCell id="LCBWZU79WuUDxQnq2k4j-16" value="" style="endArrow=classic;html=1;exitX=0.5;exitY=1;exitDx=0;exitDy=0;" edge="1" parent="1" source="LCBWZU79WuUDxQnq2k4j-15">
          <mxGeometry width="50" height="50" relative="1" as="geometry">
            <mxPoint x="230" y="170" as="sourcePoint" />
            <mxPoint x="500" y="200" as="targetPoint" />
          </mxGeometry>
        </mxCell>
        <mxCell id="LCBWZU79WuUDxQnq2k4j-17" value="&quot;ingresa una edad&quot;" style="shape=document;whiteSpace=wrap;html=1;boundedLbl=1;" vertex="1" parent="1">
          <mxGeometry x="440" y="200" width="120" height="80" as="geometry" />
        </mxCell>
        <mxCell id="LCBWZU79WuUDxQnq2k4j-18" value="" style="endArrow=classic;html=1;exitX=0.467;exitY=0.863;exitDx=0;exitDy=0;exitPerimeter=0;entryX=0.5;entryY=0;entryDx=0;entryDy=0;" edge="1" parent="1" source="LCBWZU79WuUDxQnq2k4j-17" target="LCBWZU79WuUDxQnq2k4j-19">
          <mxGeometry width="50" height="50" relative="1" as="geometry">
            <mxPoint x="450" y="340" as="sourcePoint" />
            <mxPoint x="496" y="330" as="targetPoint" />
          </mxGeometry>
        </mxCell>
        <mxCell id="LCBWZU79WuUDxQnq2k4j-19" value="Ed1" style="shape=parallelogram;perimeter=parallelogramPerimeter;whiteSpace=wrap;html=1;fixedSize=1;" vertex="1" parent="1">
          <mxGeometry x="437" y="330" width="120" height="60" as="geometry" />
        </mxCell>
        <mxCell id="LCBWZU79WuUDxQnq2k4j-31" value="" style="edgeStyle=orthogonalEdgeStyle;rounded=0;orthogonalLoop=1;jettySize=auto;html=1;" edge="1" parent="1" source="LCBWZU79WuUDxQnq2k4j-20" target="LCBWZU79WuUDxQnq2k4j-30">
          <mxGeometry relative="1" as="geometry" />
        </mxCell>
        <mxCell id="LCBWZU79WuUDxQnq2k4j-33" value="" style="edgeStyle=orthogonalEdgeStyle;rounded=0;orthogonalLoop=1;jettySize=auto;html=1;" edge="1" parent="1" source="LCBWZU79WuUDxQnq2k4j-20" target="LCBWZU79WuUDxQnq2k4j-32">
          <mxGeometry relative="1" as="geometry" />
        </mxCell>
        <mxCell id="LCBWZU79WuUDxQnq2k4j-20" value="ed1 &amp;gt; 18" style="rhombus;whiteSpace=wrap;html=1;" vertex="1" parent="1">
          <mxGeometry x="457" y="430" width="80" height="80" as="geometry" />
        </mxCell>
        <mxCell id="LCBWZU79WuUDxQnq2k4j-21" value="" style="endArrow=classic;html=1;entryX=0.5;entryY=0;entryDx=0;entryDy=0;" edge="1" parent="1" source="LCBWZU79WuUDxQnq2k4j-19" target="LCBWZU79WuUDxQnq2k4j-20">
          <mxGeometry width="50" height="50" relative="1" as="geometry">
            <mxPoint x="450" y="440" as="sourcePoint" />
            <mxPoint x="500" y="390" as="targetPoint" />
          </mxGeometry>
        </mxCell>
        <mxCell id="LCBWZU79WuUDxQnq2k4j-35" value="" style="edgeStyle=orthogonalEdgeStyle;rounded=0;orthogonalLoop=1;jettySize=auto;html=1;" edge="1" parent="1" target="LCBWZU79WuUDxQnq2k4j-34">
          <mxGeometry relative="1" as="geometry">
            <mxPoint x="497" y="650" as="sourcePoint" />
          </mxGeometry>
        </mxCell>
        <mxCell id="LCBWZU79WuUDxQnq2k4j-30" value="&quot;Es mayor de edad&quot;" style="shape=document;whiteSpace=wrap;html=1;boundedLbl=1;" vertex="1" parent="1">
          <mxGeometry x="437" y="590" width="120" height="80" as="geometry" />
        </mxCell>
        <mxCell id="LCBWZU79WuUDxQnq2k4j-32" value="&quot;Es menor de edad&quot;" style="shape=document;whiteSpace=wrap;html=1;boundedLbl=1;" vertex="1" parent="1">
          <mxGeometry x="640" y="430" width="120" height="80" as="geometry" />
        </mxCell>
        <mxCell id="LCBWZU79WuUDxQnq2k4j-34" value="" style="ellipse;whiteSpace=wrap;html=1;" vertex="1" parent="1">
          <mxGeometry x="437" y="760" width="120" height="60" as="geometry" />
        </mxCell>
        <mxCell id="LCBWZU79WuUDxQnq2k4j-39" value="" style="endArrow=none;html=1;entryX=0.475;entryY=0.863;entryDx=0;entryDy=0;entryPerimeter=0;" edge="1" parent="1" target="LCBWZU79WuUDxQnq2k4j-32">
          <mxGeometry width="50" height="50" relative="1" as="geometry">
            <mxPoint x="700" y="790" as="sourcePoint" />
            <mxPoint x="700" y="550" as="targetPoint" />
          </mxGeometry>
        </mxCell>
        <mxCell id="LCBWZU79WuUDxQnq2k4j-40" value="" style="endArrow=classic;html=1;entryX=1;entryY=0.5;entryDx=0;entryDy=0;" edge="1" parent="1" target="LCBWZU79WuUDxQnq2k4j-34">
          <mxGeometry width="50" height="50" relative="1" as="geometry">
            <mxPoint x="700" y="790" as="sourcePoint" />
            <mxPoint x="500" y="590" as="targetPoint" />
          </mxGeometry>
        </mxCell>
      </root>
    </mxGraphModel>
  </diagram>
</mxfile>
